<?xml version="1.0" encoding="utf-8"?><svg width="290" height="208" viewBox="0 0 290 208" xmlns="http://www.w3.org/2000/svg" xmlns:xlink="http://www.w3.org/1999/xlink"><svg width="78" height="78" viewBox="-4 -4 78 78" id="icon_feature_01" y="130" xmlns="http://www.w3.org/2000/svg"><g fill="none" fill-rule="evenodd"><path fill="#0AEA8E" d="M43.143 64.857H15.714A5.714 5.714 0 0110 59.143l5.714-47.429A5.715 5.715 0 0121.43 6h16a5.715 5.715 0 015.714 5.714l5.714 47.429a5.715 5.715 0 01-5.714 5.714" style="mix-blend-mode:multiply"/><path stroke="#FFF" stroke-linecap="round" stroke-linejoin="round" stroke-width="1.79" d="M20.286 27.428v4m4.571-6.857v9.715m4.572-13.715v17.715M34 24.571v9.715m4.572-6.858v4"/><path fill="#00C6FF" d="M56 64.8H46a4 4 0 01-4-4V37a9 9 0 019-9 9 9 0 019 9v23.8a4 4 0 01-4 4" style="mix-blend-mode:multiply"/></g></svg><svg width="78" height="78" viewBox="-4 -4 78 78" id="icon_feature_02" x="212" y="78" xmlns="http://www.w3.org/2000/svg"><g fill="none" fill-rule="evenodd"><path fill="#00C6FF" d="M41.92 14.568a8.568 8.568 0 11-17.137 0 8.568 8.568 0 0117.136 0" style="mix-blend-mode:multiply"/><path fill="#0AEA8E" d="M50.475 16.325h-35.03c-3.008 0-5.445 2.42-5.445 5.405v7.832c0 1.69 1.801 2.77 3.293 1.972a8.084 8.084 0 014.202-.944c4.134.19 7.536 3.592 7.727 7.727a8.12 8.12 0 01-11.89 7.573c-1.512-.8-3.332.242-3.332 1.953v8.48c0 2.986 2.437 5.406 5.444 5.406h35.031c3.007 0 5.444-2.42 5.444-5.406V21.73c0-2.985-2.437-5.406-5.444-5.405" style="mix-blend-mode:multiply"/><path stroke="#FFF" stroke-linecap="round" stroke-linejoin="round" stroke-width="1.387" d="M33.071 29.461v11.2m.156 6.432H33.2a.267.267 0 01-.267-.267V46.8c0-.147.12-.267.267-.267h.027c.147 0 .266.12.266.267v.026c0 .148-.12.267-.266.267z"/><path fill="#00C6FF" d="M66.053 38.701a8.568 8.568 0 11-17.137 0 8.568 8.568 0 0117.137 0" style="mix-blend-mode:multiply"/></g></svg><svg width="78" height="78" viewBox="-4 -4 78 78" id="icon_feature_03" x="78" y="130" xmlns="http://www.w3.org/2000/svg"><g fill="none" fill-rule="evenodd"><path fill="#0AEA8E" d="M10.746 24.465v20.144a6.293 6.293 0 003.164 5.449L31.3 60.082a6.425 6.425 0 006.41 0L55.1 50.058a6.294 6.294 0 003.164-5.449V24.465a6.293 6.293 0 00-3.164-5.448L37.71 8.992a6.425 6.425 0 00-6.41 0L13.91 19.017a6.292 6.292 0 00-3.164 5.448" style="mix-blend-mode:multiply"/><path stroke="#FFF" stroke-linecap="round" stroke-linejoin="round" stroke-width=".901" d="M16.812 24.012l35.386 21.05m0-21.05l-35.386 21.05"/><path fill="#00C6FF" d="M62.51 20.713c0 2.322-1.901 4.204-4.246 4.204-2.345 0-4.246-1.882-4.246-4.204 0-2.32 1.901-4.203 4.246-4.203 2.345 0 4.246 1.882 4.246 4.203" style="mix-blend-mode:multiply"/><path fill="#0AEA8E" d="M62.51 48.236c0 2.321-1.901 4.203-4.246 4.203-2.345 0-4.246-1.882-4.246-4.203 0-2.322 1.901-4.204 4.246-4.204 2.345 0 4.246 1.882 4.246 4.204" style="mix-blend-mode:multiply"/><path fill="#00C6FF" d="M14.993 20.713c0 2.322-1.902 4.204-4.247 4.204-2.345 0-4.246-1.882-4.246-4.204 0-2.32 1.901-4.203 4.246-4.203 2.345 0 4.247 1.882 4.247 4.203" style="mix-blend-mode:multiply"/><path fill="#0AEA8E" d="M14.993 48.236c0 2.321-1.902 4.203-4.247 4.203-2.345 0-4.246-1.882-4.246-4.203 0-2.322 1.901-4.204 4.246-4.204 2.345 0 4.247 1.882 4.247 4.204M38.751 8.203c0 2.322-1.9 4.204-4.246 4.204-2.345 0-4.246-1.882-4.246-4.204C30.259 5.883 32.16 4 34.505 4c2.345 0 4.246 1.882 4.246 4.203" style="mix-blend-mode:multiply"/><path stroke="#FFF" stroke-linecap="round" stroke-linejoin="round" stroke-width=".901" d="M34.505 14.521v40.032"/><path fill="#00C6FF" d="M38.751 61.246c0 2.322-1.9 4.203-4.246 4.203-2.345 0-4.246-1.881-4.246-4.203 0-2.321 1.901-4.203 4.246-4.203 2.345 0 4.246 1.882 4.246 4.203" style="mix-blend-mode:multiply"/></g></svg><svg width="78" height="78" viewBox="-4 -4 78 78" id="icon_feature_04" x="212" xmlns="http://www.w3.org/2000/svg"><g fill="none" fill-rule="evenodd"><path fill="#0AEA8E" d="M58.332 28.24c0-12.458-9.983-22.625-22.521-23.212a23.114 23.114 0 00-2.29 0C20.983 5.615 11 15.782 11 28.24c0 7.844 3.958 14.777 10.017 18.985 1.386.963 2.243 2.498 2.243 4.166v8.21c0 2.784 2.298 5.04 5.133 5.04H40.94c2.835 0 5.133-2.256 5.133-5.04v-8.21c0-1.668.857-3.203 2.243-4.166 6.06-4.208 10.017-11.141 10.017-18.985" style="mix-blend-mode:multiply"/><path stroke="#FFF" stroke-linecap="round" stroke-linejoin="round" stroke-width="1.633" d="M34.666 23.082c6.95 0 12.584 2.43 12.584 5.426s-5.634 5.424-12.584 5.424c-6.95 0-12.584-2.428-12.584-5.424 0-2.997 5.634-5.426 12.584-5.426z"/><path stroke="#FFF" stroke-linecap="round" stroke-linejoin="round" stroke-width="1.633" d="M34.666 30.015c6.95 0 12.584 2.429 12.584 5.425s-5.634 5.426-12.584 5.426c-6.95 0-12.584-2.43-12.584-5.426s5.634-5.425 12.584-5.425zm0-13.865c6.95 0 12.584 2.429 12.584 5.425S41.616 27 34.666 27c-6.95 0-12.584-2.429-12.584-5.425s5.634-5.426 12.584-5.426z"/><path fill="#00FFFE" d="M47.387 53.538H21.671c-1.057 0-1.915-.842-1.915-1.88 0-1.04.858-1.881 1.915-1.881h25.716c1.058 0 1.915.841 1.915 1.88s-.857 1.88-1.915 1.88" style="mix-blend-mode:multiply"/><path fill="#00C6FF" d="M47.75 53.537H22.034c-1.058 0-1.915-.842-1.915-1.88 0-1.04.857-1.88 1.915-1.88H47.75c1.058 0 1.915.84 1.915 1.88 0 1.038-.857 1.88-1.915 1.88m-.363 6.986H21.671c-1.057 0-1.915-.842-1.915-1.88 0-1.04.858-1.881 1.915-1.881h25.716c1.058 0 1.915.841 1.915 1.88s-.857 1.88-1.915 1.88" style="mix-blend-mode:multiply"/></g></svg><svg width="26" height="24" viewBox="-4 -4 26 24" id="icon_footer_blog" x="132" y="80" xmlns="http://www.w3.org/2000/svg"><path fill="#565656" fill-rule="evenodd" d="M15.156.783C16.726.783 18 1.995 18 3.486V9.9c0 1.492-1.274 2.702-2.844 2.702h-4.242l-1.446 2.232s-.013.028-.05.068A.495.495 0 019 15.13a.493.493 0 01-.422-.231.38.38 0 01-.046-.065l-1.448-2.232H2.842C1.27 12.602 0 11.392 0 9.9V3.486C0 1.995 1.27.783 2.842.783h12.314zM14.01 5.285c-.204.001-1.53.063-1.53 1.548 0 0-.016 1.5 1.514 1.5 0 0 .624.022.967-.386v.244c.007.081.03.73-.7.73h-.267v.895h.458c.218-.007 1.58-.111 1.58-1.577V5.385h-1.07v.286l-.007-.008a1.25 1.25 0 00-.918-.377zM3.067 4.068H1.97v4.209h1.11v-.33c.043.065.313.436.925.436 0 0 1.55-.054 1.55-1.574 0 0-.057-1.538-1.55-1.538 0 0-.492 0-.938.4V4.068zm6.998 1.218s-1.82 0-1.82 1.558v.022c.002.19.077 1.517 1.82 1.517 0 0 1.86-.003 1.86-1.54v-.022c-.001-.192-.076-1.535-1.86-1.535zM5.909 3.97v.976c.06 0 .5.033.5.84v2.49h1.062V5.528c-.003-.207-.077-1.557-1.562-1.557zM3.762 6.195c.39 0 .707.29.707.649 0 .358-.317.648-.707.648-.391 0-.707-.29-.707-.648 0-.36.316-.649.707-.649zm6.303 0c.39 0 .707.29.707.649 0 .358-.316.648-.707.648-.391 0-.707-.29-.707-.648 0-.36.316-.649.707-.649zm4.239 0c.39 0 .706.29.706.649 0 .358-.315.648-.706.648-.39 0-.707-.29-.707-.648 0-.36.316-.649.707-.649z"/></svg><svg width="26" height="23" viewBox="-4 -4 26 23" id="icon_footer_blog_dark" x="238" y="180" xmlns="http://www.w3.org/2000/svg"><path fill="#FFF" fill-rule="evenodd" d="M15.156 0A2.837 2.837 0 0118 2.827v6.705a2.835 2.835 0 01-2.844 2.825h-4.242L9.468 14.69s-.013.03-.05.071a.489.489 0 01-.84-.003c-.031-.038-.046-.068-.046-.068l-1.448-2.333H2.842A2.833 2.833 0 010 9.532V2.827C0 1.267 1.27 0 2.842 0h12.314zm-1.12 4.708h-.057c-.28.008-1.498.13-1.498 1.618 0 0-.017 1.568 1.513 1.568h.036c.137-.003.637-.038.931-.404v.255c.007.085.03.764-.7.764h-.267v.935h.436c.114 0 1.601-.047 1.601-1.649V4.811h-1.07v.3l-.006-.009a1.228 1.228 0 00-.918-.394zM3.068 3.435H1.97v4.4h1.11V7.49c.043.068.313.456.925.456 0 0 1.55-.056 1.55-1.646 0 0-.057-1.607-1.55-1.607 0 0-.492 0-.938.417V3.435zm6.998 1.273s-1.82 0-1.82 1.629v.023c.002.198.077 1.586 1.82 1.586 0 0 1.86-.003 1.86-1.61v-.023c-.001-.2-.076-1.605-1.86-1.605zM5.909 3.333v1.02l.02.001c.091.007.48.083.48.877v2.604h1.062V4.962c-.003-.218-.077-1.629-1.562-1.629zM3.762 5.66c.39 0 .707.302.707.678 0 .375-.317.678-.707.678a.692.692 0 01-.707-.678c0-.376.316-.678.707-.678zm6.303 0c.39 0 .707.302.707.678 0 .375-.316.678-.707.678-.391 0-.707-.303-.707-.678 0-.376.316-.678.707-.678zm4.239 0c.39 0 .706.302.706.678a.692.692 0 01-.706.678c-.39 0-.707-.303-.707-.678 0-.376.316-.678.707-.678z" opacity=".2"/></svg><svg width="23" height="24" viewBox="-4 -4 23 24" id="icon_footer_facebook" x="181" y="80" xmlns="http://www.w3.org/2000/svg"><path fill="#565656" fill-rule="evenodd" d="M14.172.783H.828C.37.783 0 1.137 0 1.575v12.764c0 .437.37.791.828.791h7.184V9.574H6.057V7.41h1.955V5.812c0-1.853 1.184-2.863 2.912-2.863.828 0 1.54.06 1.747.086v1.936l-1.2.001c-.94 0-1.12.427-1.12 1.054V7.41h2.24L12.3 9.574h-1.95v5.556h3.822c.458 0 .828-.354.828-.791V1.575c0-.438-.37-.792-.828-.792"/></svg><svg width="23" height="23" viewBox="-4 -4 23 23" id="icon_footer_facebook_dark" x="132" y="104" xmlns="http://www.w3.org/2000/svg"><path fill="#FFF" fill-rule="evenodd" d="M14.172 0H.828A.828.828 0 000 .828v13.344c0 .458.37.828.828.828h7.184V9.191H6.057V6.928h1.955v-1.67c0-1.938 1.184-2.993 2.912-2.993.828 0 1.54.062 1.747.09v2.024h-1.2c-.94 0-1.12.447-1.12 1.103v1.446h2.24L12.3 9.19h-1.95V15h3.822c.458 0 .828-.37.828-.828V.828A.828.828 0 0014.172 0" opacity=".2"/></svg><svg width="23" height="24" viewBox="-4 -4 23 24" id="icon_footer_instargram" x="158" y="80" xmlns="http://www.w3.org/2000/svg"><path fill="#565656" fill-rule="evenodd" d="M10.67.783c2.392 0 4.33 1.853 4.33 4.14v6.067c0 2.288-1.938 4.14-4.33 4.14H4.33C1.937 15.13 0 13.278 0 10.99V4.923C0 2.636 1.938.783 4.33.783zM7.5 4.27c-2.149 0-3.89 1.666-3.89 3.723 0 2.055 1.741 3.722 3.89 3.722 2.15 0 3.893-1.667 3.893-3.722 0-2.057-1.743-3.723-3.893-3.723zm0 1.309c1.395 0 2.523 1.081 2.523 2.414 0 1.333-1.128 2.413-2.523 2.413-1.393 0-2.522-1.08-2.522-2.413 0-1.333 1.13-2.414 2.522-2.414zm4.023-2.319c-.5 0-.908.388-.908.867 0 .48.407.868.908.868.501 0 .906-.387.906-.868 0-.479-.405-.867-.906-.867z"/></svg><svg width="23" height="23" viewBox="-4 -4 23 23" id="icon_footer_instargram_dark" x="155" y="104" xmlns="http://www.w3.org/2000/svg"><path fill="#FFF" fill-rule="evenodd" d="M10.67 0A4.33 4.33 0 0115 4.33v6.34A4.328 4.328 0 0110.67 15H4.33A4.328 4.328 0 010 10.67V4.33A4.329 4.329 0 014.33 0zM7.498 3.5a3.999 3.999 0 00-3.998 4 4 4 0 108 0 4 4 0 00-4.002-4zM7.5 5a2.5 2.5 0 11.001 5 2.5 2.5 0 010-5zm4.002-2.5a1 1 0 100 2 1 1 0 000-2z" opacity=".2"/></svg><svg width="26" height="24" viewBox="-4 -4 26 24" id="icon_footer_youtube" x="212" y="180" xmlns="http://www.w3.org/2000/svg"><path fill="#565656" fill-rule="evenodd" d="M15.555 1.963c1.185.186 1.828.7 2.171 2.041.116.446.274 2.911.274 3.849v.207c0 .94-.158 3.402-.274 3.852-.343 1.337-.986 1.852-2.171 2.037-.682.1-3.958.225-6.562.225l.012-.002c-2.602 0-5.88-.123-6.56-.223-1.184-.185-1.83-.7-2.17-2.037C.159 11.462 0 9 0 8.06v-.207c0-.938.159-3.403.275-3.849.34-1.338.986-1.855 2.17-2.041.656-.095 3.732-.215 6.283-.223h.27c2.603 0 5.877.125 6.557.223zM7.548 5.696v4.521l4.065-2.313-4.065-2.208z"/></svg><svg width="25" height="23" viewBox="-4 -4 25 23" id="icon_footer_youtube_dark" x="264" y="180" xmlns="http://www.w3.org/2000/svg"><path fill="#FFF" fill-rule="evenodd" d="M15.555 1.234c1.185.194 1.828.732 2.171 2.134.116.466.274 3.043.274 4.023v.218c0 .982-.158 3.556-.274 4.026-.343 1.398-.986 1.937-2.171 2.13-.682.104-3.958.235-6.562.235l.012-.002c-2.602 0-5.88-.13-6.56-.233-1.184-.193-1.83-.732-2.17-2.13C.159 11.165 0 8.591 0 7.61v-.22c0-.98.159-3.557.275-4.023.34-1.399.986-1.94 2.17-2.134.656-.1 3.732-.225 6.283-.234h.27c2.603 0 5.877.131 6.557.234zM7.548 5.136v4.728l4.065-2.42-4.065-2.308z" opacity=".2"/></svg><svg width="132" height="25" viewBox="-4 -4 132 25" id="icon_logo" y="25" xmlns="http://www.w3.org/2000/svg"><path fill-rule="evenodd" d="M57.44 0a8.61 8.61 0 016.579 3.038l.067.078L61.143 5.5a4.826 4.826 0 00-3.703-1.743c-2.643 0-4.793 2.128-4.793 4.743l.005.211c.112 2.518 2.216 4.532 4.788 4.532a4.824 4.824 0 003.534-1.548l.06-.064.07-.082.04-.048 2.942 2.383-.067.078A8.612 8.612 0 0157.439 17c-4.735 0-8.588-3.813-8.588-8.5l.003-.255C48.991 3.675 52.79 0 57.44 0zm27.903 0a8.562 8.562 0 016.65 3.126A8.463 8.463 0 0193.932 8.5c0 1.95-.69 3.858-1.94 5.373l-.07.09A8.614 8.614 0 0185.342 17a8.6 8.6 0 01-7.396-4.18 8.456 8.456 0 01-1.193-4.32c0-1.955.688-3.864 1.937-5.376A8.602 8.602 0 0185.343 0zM98.1.513l3.964 10.226L106.029.513h3.974l-6.192 15.974h-3.492L94.127.513H98.1zm-28.363 0v12.303h6.267v3.67h-9.976V.514h3.71zm48.07 0L124 16.487h-3.974l-1.02-2.809h-5.887l-1.02 2.809h-3.975L114.316.513h3.492zM85.343 3.757a4.797 4.797 0 00-3.712 1.744c-.697.843-1.081 1.909-1.081 2.999s.384 2.155 1.08 3a4.8 4.8 0 003.713 1.743 4.828 4.828 0 003.534-1.547c.044-.049.086-.099.127-.15l.043-.052A4.649 4.649 0 0090.136 8.5a4.646 4.646 0 00-1.089-2.993 4.58 4.58 0 00-.449-.48 4.794 4.794 0 00-3.255-1.27zM2.93 4.93l2.71 3.88V4.93h2.92v7.69H5.633L2.921 8.74v3.88H0V4.93h2.93zm36.004-.418c2.16 0 3.799.66 3.799 2.714 0 1.223-.683 1.983-1.744 2.277l2.413 2.983h-3.43l-1.783-2.49v2.49h-2.985V4.513zm-4.953 0v2.076h-3.095v.94h2.852v1.959h-2.852v.921h3.19v2.078H27.93V4.513h6.052zm-17.84 0l3.14 7.974h-3.319l-.29-1.042h-2.465l-.29 1.042h-3.32l3.14-7.974h3.404zm4.869 0l1.47 4.808h.083l1.471-4.808h3.255l-3.359 7.974h-2.818l-3.358-7.974h3.256zm95.05.658l-1.83 5.208h3.662l-1.831-5.208zM14.482 6.972H14.4l-.702 2.63h1.487l-.703-2.63zm24.243-.452h-.629v1.57h.641c.277 0 .613-.07.787-.21a.676.676 0 00.255-.56c0-.248-.077-.443-.243-.586-.167-.143-.51-.214-.811-.214z"/></svg><svg width="132" height="25" viewBox="-4 -4 132 25" id="icon_logo_main" xmlns="http://www.w3.org/2000/svg"><path fill="#FFF" fill-rule="evenodd" d="M57.44 0a8.61 8.61 0 016.579 3.038l.067.078L61.143 5.5a4.826 4.826 0 00-3.703-1.743c-2.643 0-4.793 2.128-4.793 4.743l.005.211c.112 2.518 2.216 4.532 4.788 4.532a4.824 4.824 0 003.534-1.548l.06-.064.07-.082.04-.048 2.942 2.383-.067.078A8.612 8.612 0 0157.439 17c-4.735 0-8.588-3.813-8.588-8.5l.003-.255C48.991 3.675 52.79 0 57.44 0zm27.903 0a8.562 8.562 0 016.65 3.126A8.463 8.463 0 0193.932 8.5c0 1.95-.69 3.858-1.94 5.373l-.07.09A8.614 8.614 0 0185.342 17a8.6 8.6 0 01-7.396-4.18 8.456 8.456 0 01-1.193-4.32c0-1.955.688-3.864 1.937-5.376A8.602 8.602 0 0185.343 0zM98.1.513l3.964 10.226L106.029.513h3.974l-6.192 15.974h-3.492L94.127.513H98.1zm-28.363 0v12.303h6.267v3.67h-9.976V.514h3.71zm48.07 0L124 16.487h-3.974l-1.02-2.809h-5.887l-1.02 2.809h-3.975L114.316.513h3.492zM85.343 3.757a4.797 4.797 0 00-3.712 1.744c-.697.843-1.081 1.909-1.081 2.999s.384 2.155 1.08 3a4.8 4.8 0 003.713 1.743 4.828 4.828 0 003.534-1.547c.044-.049.086-.099.127-.15l.043-.052A4.649 4.649 0 0090.136 8.5a4.646 4.646 0 00-1.089-2.993 4.58 4.58 0 00-.449-.48 4.794 4.794 0 00-3.255-1.27zM2.93 4.93l2.71 3.88V4.93h2.92v7.69H5.633L2.921 8.74v3.88H0V4.93h2.93zm36.004-.418c2.16 0 3.799.66 3.799 2.714 0 1.223-.683 1.983-1.744 2.277l2.413 2.983h-3.43l-1.783-2.49v2.49h-2.985V4.513zm-4.953 0v2.076h-3.095v.94h2.852v1.959h-2.852v.921h3.19v2.078H27.93V4.513h6.052zm-17.84 0l3.14 7.974h-3.319l-.29-1.042h-2.465l-.29 1.042h-3.32l3.14-7.974h3.404zm4.869 0l1.47 4.808h.083l1.471-4.808h3.255l-3.359 7.974h-2.818l-3.358-7.974h3.256zm95.05.658l-1.83 5.208h3.662l-1.831-5.208zM14.482 6.972H14.4l-.702 2.63h1.487l-.703-2.63zm24.243-.452h-.629v1.57h.641c.277 0 .613-.07.787-.21a.676.676 0 00.255-.56c0-.248-.077-.443-.243-.586-.167-.143-.51-.214-.811-.214z"/></svg><svg width="28" height="24" viewBox="-4 -4 28 24" id="icon_menu" x="212" y="156" xmlns="http://www.w3.org/2000/svg"><g fill="#FFF" fill-rule="evenodd"><rect width="20" height="2" rx="1"/><rect width="20" height="2" y="7" rx="1"/><rect width="20" height="2" y="14" rx="1"/></g></svg><svg width="28" height="24" viewBox="-4 -4 28 24" id="icon_menu_black" x="240" y="156" xmlns="http://www.w3.org/2000/svg"><path fill-rule="evenodd" d="M19 14a1 1 0 010 2H1a1 1 0 010-2h18zm0-7a1 1 0 010 2H1a1 1 0 110-2h18zm0-7a1 1 0 010 2H1a1 1 0 110-2h18z"/></svg><svg width="80" height="80" viewBox="-4 -4 80 80" id="icon_special_01" x="132" xmlns="http://www.w3.org/2000/svg"><g fill="none" fill-rule="evenodd"><path fill="#0AEA8E" d="M66.074 35.869c0 16.799-13.618 30.417-30.417 30.417-16.798 0-30.417-13.618-30.417-30.417S18.86 5.452 35.657 5.452c16.799 0 30.417 13.618 30.417 30.417"/><path stroke="#FFF" stroke-linecap="round" stroke-linejoin="round" stroke-width="2.034" d="M21.652 27.772v16.194l14.005 8.096 14.005-8.096V27.772l-14.005-8.096zm14.005-16.325v2.441"/><path stroke="#FFF" stroke-dasharray="3.806987489972796,3.806987489972796" stroke-linecap="round" stroke-linejoin="round" stroke-width="2.034" d="M35.657 17.695v13.324"/><path stroke="#FFF" stroke-linecap="round" stroke-linejoin="round" stroke-width="2.034" d="M35.657 32.923v2.441m0 0l-2.056 1.315"/><path stroke="#FFF" stroke-dasharray="4.045407567705427,4.045407567705427" stroke-linecap="round" stroke-linejoin="round" stroke-width="2.034" d="M30.192 38.858l-11.93 7.626"/><path stroke="#FFF" stroke-linecap="round" stroke-linejoin="round" stroke-width="2.034" d="M16.557 47.574l-2.056 1.314m21.156-13.524l2.045 1.333"/><path stroke="#FFF" stroke-dasharray="3.977054868425641,3.977054868425641" stroke-linecap="round" stroke-linejoin="round" stroke-width="2.034" d="M41.034 38.869l11.662 7.601"/><path stroke="#FFF" stroke-linecap="round" stroke-linejoin="round" stroke-width="2.034" d="M54.362 47.555l2.045 1.333"/><path fill="#00C7FF" d="M39.93 5.558a4.069 4.069 0 11-8.138 0 4.069 4.069 0 018.137 0" style="mix-blend-mode:multiply"/><path fill="#0AEA8E" d="M39.93 66.587a4.069 4.069 0 11-8.138 0 4.069 4.069 0 018.137 0" style="mix-blend-mode:multiply"/><path fill="#00C7FF" d="M13.483 52.347a4.069 4.069 0 11-8.137 0 4.069 4.069 0 018.137 0" style="mix-blend-mode:multiply"/><path fill="#0AEA8E" d="M65.562 20.612a4.069 4.069 0 11-8.137 0 4.069 4.069 0 018.137 0m-52.079 0a4.069 4.069 0 11-8.137 0 4.069 4.069 0 018.137 0" style="mix-blend-mode:multiply"/><path fill="#00C7FF" d="M65.968 52.347a4.069 4.069 0 11-8.137 0 4.069 4.069 0 018.137 0" style="mix-blend-mode:multiply"/></g></svg><svg width="80" height="80" viewBox="-4 -4 80 80" id="icon_special_02" y="50" xmlns="http://www.w3.org/2000/svg"><g fill="none" fill-rule="evenodd"><path fill="#0AEA8E" d="M66.54 35.839c0 16.862-13.67 30.532-30.533 30.532-16.862 0-30.532-13.67-30.532-30.532 0-16.863 13.67-30.532 30.532-30.532 16.862 0 30.532 13.67 30.532 30.532"/><path fill="#00C7FF" d="M40.09 5.37a4.084 4.084 0 11-8.167 0 4.084 4.084 0 018.168 0" style="mix-blend-mode:multiply"/><path fill="#0AEA8E" d="M40.09 66.63a4.084 4.084 0 11-8.168 0 4.084 4.084 0 018.169 0" style="mix-blend-mode:multiply"/><path stroke="#FFF" stroke-linecap="round" stroke-linejoin="round" stroke-width="2.042" d="M49.055 50.37H22.959c-.82 0-1.484-.664-1.484-1.483V22.79c0-.82.665-1.484 1.484-1.484h26.096c.82 0 1.484.665 1.484 1.484v26.096c0 .82-.665 1.484-1.484 1.484z"/><path fill="#00C7FF" d="M13.515 51.928a4.084 4.084 0 11-8.169-.001 4.084 4.084 0 018.17 0" style="mix-blend-mode:multiply"/><path fill="#0AEA8E" d="M13.515 20.072a4.084 4.084 0 11-8.168 0 4.084 4.084 0 018.168 0m52.685 0a4.084 4.084 0 11-8.17 0 4.084 4.084 0 018.17 0" style="mix-blend-mode:multiply"/><path fill="#00C7FF" d="M66.2 51.928a4.084 4.084 0 11-8.17-.001 4.084 4.084 0 018.17 0" style="mix-blend-mode:multiply"/><path stroke="#FFF" stroke-linecap="round" stroke-linejoin="round" stroke-width="1.922" d="M33.947 43.009a3.633 3.633 0 01-6.198-2.567c0-.971.378-1.883 1.064-2.569l1.286-1.288a.886.886 0 00-.005-1.177l-1.282-1.281a3.611 3.611 0 01-1.064-2.569c0-.971.378-1.88 1.066-2.57a3.598 3.598 0 012.564-1.061c.972 0 1.883.377 2.57 1.062l1.277 1.277a.884.884 0 001.186.007l1.283-1.282a3.595 3.595 0 012.568-1.064 3.61 3.61 0 012.569 1.064 3.602 3.602 0 011.063 2.567c0 .969-.377 1.882-1.063 2.569l-1.282 1.28a.884.884 0 00.003 1.185l1.279 1.281a3.604 3.604 0 011.063 2.569 3.603 3.603 0 01-1.063 2.567 3.61 3.61 0 01-2.569 1.064 3.6 3.6 0 01-2.568-1.064l-1.283-1.282a.884.884 0 00-1.18 0l-1.284 1.282z"/><path stroke="#FFF" stroke-linecap="round" stroke-linejoin="round" stroke-width="2.042" d="M20.502 26.401h-4.037m4.037 19.198h-4.037M20.502 36h-4.037m34.877-9.599h4.037m-4.037 19.198h4.037M51.342 36h4.037M26.408 20.274v-4.037m19.198 4.037v-4.037m-9.599 4.037v-4.037m-9.599 34.877v4.037m19.198-4.037v4.037m-9.599-4.037v4.037"/></g></svg></svg>